# xmcd
#
# Track frame offsets: 
#        150
#        23096
#        40886
#        55722
#        73015
#        93786
#        126783
#        141726
#        154673
#        167740
#
# Disc length: 2480 seconds
#
# Revision: 1
# Processed by: cddbd v1.5.2PL0 Copyright (c) Steve Scherf et al.
# Submitted via: ExactAudioCopyFreeDBPlugin 1.0
#
DISCID=8309ae0a
DTITLE=Various Artist - Best Of Blue Note 50 [CD 1 of 5)
DYEAR=2011
DGENRE=Jazz
TTITLE0=Charlie Parker - Groovin' High
TTITLE1=Louis Armstrong And The Duke Ellington Orchestra - It Don't Me
TTITLE1=an A Thing (If It Ain't Got That Swing)
TTITLE2=Billie Holliday With Paul Whiteman And His Orchestra - Trav'li
TTITLE2=n' Light
TTITLE3=Count Basie And His Orchestra - Whirly Bird
TTITLE4=Gil Fuller and The Monterey Jazz Festival Orchestra Feat.Dizzy G
TTITLE4=illespie - Big Sur
TTITLE5=Thad Jones And Mel Lewis - Don't Git Sassy
TTITLE6=Duke Ellington - Wig Wise
TTITLE7=Gerry Mulligan - Bernie's Tune
TTITLE8=Stan Getz - Split Kick
TTITLE9=Sarah Vaughan - In A Sentimental Mood
EXTD=YEAR: 2011
EXTT0=
EXTT1=
EXTT2=
EXTT3=
EXTT4=
EXTT5=
EXTT6=
EXTT7=
EXTT8=
EXTT9=
PLAYORDER=
